<svg width="36" height="36" viewBox="0 0 36 36" fill="none" xmlns="http://www.w3.org/2000/svg">
<path d="M26.9938 34H24.2041V21.4286C24.2041 20.7143 23.6462 20 22.5303 19.4286C21.4144 18.8571 19.7405 18.5714 18.0667 18.5714C14.9979 18.5714 11.7897 19.5714 11.7897 21.4286V33.8571H9V21.4286C9 17.5714 13.7426 15.7143 18.0667 15.7143C22.3908 15.7143 27.1333 17.5714 27.1333 21.4286V34H26.9938ZM18.0667 14.2857C14.719 14.2857 12.0687 11.5714 12.0687 8.14286C12.0687 4.71429 14.719 2 18.0667 2C21.4144 2 23.9251 4.71429 23.9251 8.14286C23.9251 11.5714 21.2749 14.2857 18.0667 14.2857ZM18.0667 4.85714C16.2533 4.85714 14.8585 6.28571 14.8585 8.14286C14.8585 10 16.2533 11.4286 18.0667 11.4286C19.88 11.4286 21.1354 10 21.1354 8.14286C21.1354 6.28571 19.7405 4.85714 18.0667 4.85714Z" fill="black"/>
</svg>
